<?xml version="1.0" encoding="utf-8"?>
<!-- Generator: Adobe Illustrator 23.0.1, SVG Export Plug-In . SVG Version: 6.00 Build 0)  -->
<svg version="1.1" id="Layer_1" xmlns="http://www.w3.org/2000/svg" xmlns:xlink="http://www.w3.org/1999/xlink" x="0px" y="0px"
	 viewBox="0 0 612 792" style="enable-background:new 0 0 612 792;" xml:space="preserve">
<style type="text/css">
	.st0{fill:none;stroke:#FFFFFF;stroke-width:5;stroke-miterlimit:10;}
</style>
<g>
	<line class="st0" x1="205.75" y1="137.02" x2="228.89" y2="172.09"/>
	<line class="st0" x1="398.32" y1="135.18" x2="373.23" y2="173.09"/>
	<line class="st0" x1="212.16" y1="211.25" x2="212.16" y2="222.37"/>
	<line class="st0" x1="182.3" y1="197.32" x2="212.16" y2="211.25"/>
	<polyline class="st0" points="301.33,180.73 212.16,223.86 182.3,211.25 182.3,197.32 270.56,152.19 183.43,108.95 	"/>
	<line class="st0" x1="301.33" y1="180.73" x2="301.33" y2="166.54"/>
	<polyline class="st0" points="392.17,211.25 301.33,165.46 212.16,211.25 	"/>
	<line class="st0" x1="392.17" y1="226.43" x2="392.17" y2="211.25"/>
	<line class="st0" x1="422.3" y1="196.21" x2="392.17" y2="211.25"/>
	<polyline class="st0" points="418.67,108.66 330.28,152.85 422.3,196.21 421.86,214.57 392.17,227.84 301.33,180.73 	"/>
	<polyline class="st0" points="256.42,160.15 182.3,126.31 182.3,108.39 211.5,92.47 301.33,136.27 392.17,91.14 420.28,107.33 
		420.28,124.53 346.75,160.19 	"/>
	<polyline class="st0" points="329.4,346.4 356.4,281.81 247.72,281.81 272.33,345.96 	"/>
	<polyline class="st0" points="318.91,348.07 301.29,314.11 285.6,347.73 	"/>
	<circle class="st0" cx="219.46" cy="366.82" r="21.12"/>
	<circle class="st0" cx="275.09" cy="366.82" r="21.12"/>
	<circle class="st0" cx="328.63" cy="366.82" r="21.12"/>
	<g>
		<g>
			<path class="st0" d="M205.88,384.86L205.88,384.86c-4.59,8.42-7.91,17.45-9.58,26.91c-1.51,8.62-2.43,18.32,0.56,26.73
				c4.89,13.71,19.22,21.45,33.15,22.44c18.95,1.34,35.93-9.17,51.5-18.52c9.57-5.75,18.36-8.87,29.59-9.21
				c8.86-0.27,17.39-1.02,25.01-6c15.8-10.32,19.15-32.5,10.29-48.98"/>
		</g>
	</g>
	<g>
		<g>
			<path class="st0" d="M261.95,384.39c-3.79,8.6-9.79,16.02-17.79,21.04c-4.75,2.98-11.63,6.14-15.4,0.07
				c-3.06-4.92-3.29-13.6-1.63-18.99"/>
		</g>
	</g>
	<g>
		<g>
			<path class="st0" d="M306.84,366.02c-3.39,0-6.78,0-10.18,0"/>
		</g>
	</g>
	<line class="st0" x1="195.46" y1="216.81" x2="247.72" y2="281.81"/>
	<line class="st0" x1="407.85" y1="220.43" x2="356.4" y2="281.81"/>
	<line class="st0" x1="250.74" y1="205.2" x2="301.29" y2="281.81"/>
	<line class="st0" x1="351.1" y1="206.54" x2="301.29" y2="281.81"/>
</g>
</svg>
